<mxfile host="app.diagrams.net" modified="2024-05-09T13:54:14.555Z" agent="Mozilla/5.0 (Windows NT 10.0; Win64; x64) AppleWebKit/537.36 (KHTML, like Gecko) Chrome/122.0.0.0 Safari/537.36" etag="BV8yqO7uRmVgWfZIiogM" version="24.3.1" type="device">
  <diagram name="Page-1" id="HsSZYO-UvAjpK4vKR1-L">
    <mxGraphModel dx="2217" dy="747" grid="1" gridSize="10" guides="1" tooltips="1" connect="1" arrows="1" fold="1" page="1" pageScale="1" pageWidth="827" pageHeight="1169" math="0" shadow="0">
      <root>
        <mxCell id="0" />
        <mxCell id="1" parent="0" />
        <mxCell id="q7QgNxrnTfwrDp3vI8ud-2" value="" style="shape=image;verticalLabelPosition=bottom;labelBackgroundColor=default;verticalAlign=top;aspect=fixed;imageAspect=0;image=data:image/png,iVBORw0KGgoAAAANSUhEUgAAASYAAACDCAYAAAAgYrYzAAAAAXNSR0IArs4c6QAAAARnQU1BAACxjwv8YQUAAAAJcEhZcwAADsMAAA7DAcdvqGQAABBuSURBVHhe7Z2/dqpMF8Z3vmuRU7hyBXAFmiaVrR2W2qSztEuDpXS2VGmCVyBX4Erxwr3w7RkGBQQERTOR53fWrGOQPwPK4+w9wzwvMUMAAKAR/1P/AwCANvxtYYrWZL28kLWO1AIAwDMghWltvdAL3+CVxZrRDvc+AOBBnHJMovVheDQJ9zQfyCWKiHazKY1dIufsPQAA6J4GodyARps9+XZAi8+dWgYAAPejcY7JGJpEh//UX3mi3ZpmxXDQsmh9Kf6LdoXtLJqJbVTuKNnPWq2cwtsc11dlVi+Y0dpS63Kd5O5np/1zsWZrbhcCAHShsTCFPwHR6z/1V4bdjIyxR8NlSCFHhSIyFCXcLom+plJYSm963u7FWBHxduk2cbil4cog6/OHVzA5dORl+3my/pERbTLH8W21uIbBfM/7dniPRN70hQxvSFuxb3nMkCaHBRlV9QQAPB6+ORNCJzbJjFkM8oRh7NtmTGTHvlp0pGqbDCwcMdnFLf3YrtwujB2Tt7mw35Ty/Zcg60qxWbquqA/FTXYDALg/hRZTQAvjFOLIYhg0dgOynQ9uq+SJvj0K7GVtQnz0wS0V94sDsBPRekWuOanYbkDzZYNm0FWYNPkonoVgRCJSBQDoQUGYVPiUCZVECUOfhp6RDBtQawpkeOeO80JWLMaC5e5A/2XipMqwMMUYyrALANBPGuWYBoMRzfcxOeTSuJhotv0zITsvGGYAAGhO4+S34G3C7ZhMz9zonUMuDtPaJo3revgk4Q+3sgAAfaWVMJ2FYKMPckyXpi0fCRnMl2QHnuy6Pyei9cpVrwEAfaShMInR3xaNXZOcXPJ4QPOtT6+eIccC7aKC0vDfOzlmqPhIy4g2/istjMJYJzmuySCPTOSYAOgzMZN0z18oph37ld33Yew7dmwW9mPyNo7j87sVhH5s57YxY1scpHIYQtKtnz1GeckPbTg7P9NR7zC+Xf0eAOBX0HM+psrn9gAAfaBVjulhyOT3K71BlADoJdoJk3juzhq7ZPsbgi4B0E9+V5jE83KFAZnG6odDuJg2ZQO0AQC9AHN+AwC0Q88cEwCg10CYAADaAWECAGgHhAkAoB0QJgCAdkCYAADaAWECAGgHhAkAoB0QJgCAdvRGmE7ectXFajnhnXZIP77EO+9RyGcbC96A1mwnZzUV1vMXLP8AKKU3wiS95TLzkEs/usJ85XvMsdKCSArPVDzbmPUGjPe0HK7IeJmRp9YEoC0I5cBV7GYGeZOQ9vsNzUd5QR+JHwGfKMDE7eBKIEw1XGMtng0ZZWgopwvOh5GWsME6C7cy1udFW/TCLAzF8Oh4TGmVVeINKEqXTsNcn7Fr07bWUHBDDuZHBtfCze9e0s7B10ymDTYdYUyslivHYLFMLcoi3jNtW25rF6YXDv3EFbjcFNiund5X7Ley2g2ckbug8bUD4ErQYmqEcIfxKd7PaZA2EvjFfO+THSzosyLBG7gH3mxPm/koN+ndYDSnfejQYfzYRHWXmENDvQKgeyBMjbjSWtxeVk94N5jT0g7I+/6jygTAHYEw3ZFLrQph/Bl43+ovAEAKhAm0RgrqT6j+AqB7IEx35NLNK5yNzcmb+uvvMHibkOmu/mx+DOgPhOme8M1bOfI5WtPKNWlS5lEV/JR37Uc7Ei7tv85gTluHaDGtG4Ig3Jtf6AVDv8EVQJjuiOlMiFYWzdbJIxop8jGOqSd77M6GAo3eySaXPnMDnSLeZsbbfNGhLtnOgjExg0QwjpuLbddqLJVVMn7qOsRI+nDikXE2Jis9nkHjg0Mh7G7ANahhA09P6Jh5K/CSYhYGAN1iLS7HMcn9hbFj548trNOr7daZonW6mYyFEhzrVDnW6fx46fb3GN4Ucl3Pj2fHTu0JAlAP7JvuhHiOTD6ygefvAGgNQjkAgHZAmAAA2gFh6pj0gdpFQBQsjONDtOicAqA5yDEBALQDLSYAgHZAmAAA2gFhAgBoB4QJAKAdECYAgHZAmAAA2gFhAr1GPDqEGRD0A+OYQH8R7jPjAzlhySwP4FdBi6kHyNHoRUuoIpGYqkRZPUm7pxmtW8yRIloe93Yy7np+p92XK+dlrxIlebz0ehTLpev5F4h2tBaWZLnP3Wr0ue+KVmallmQ3IFpMT4+0NcpMy1Fb7m9/9FDUude6LakpXEw1tYokDHmxeTYVTBWnaV6aIS2sctPK8LG4kmIPlRZVqp6dOEc1uC7CpqrNOf0lQnktTT7/8GRJxqTWYuKzKCe1LRNT96QbJt+VLu+dfvnKXfBse5Qv2yORHnB8ztWnlHzRqm5A8YVrcj2aC5M6XsmcTb6cM8uWglV1XyQ3Rc1n2JD0utTxm8L0q959NfdBMq8Zi5L6O4t8r/a71hyEclkG/+iV//17lnyDnL6Xf8cmbzlfuxzRN3lBxRS/jDGkUoupNMyxuOk/m83IEwu9T35tHUODsqjrVmvx+dIWT0ff9lC0ui72cq4WgBxqJtSyKeu/vYC154PK5iWVc8EHHnXhSAZhyjGiTbwpveh/kd2nsAy3aXljZrfMYmq0Ea3tkLbbJb2/D1nOeT0u7+9LXhaKlvi5p14X1uKjDz4jIvfremWS18V0qNQqEEjhFj9WZe5j8338mMkPk4ZTTyiGcrLJWt4svR4/5htH5kKala6PnxIm9bgY9tSFciqfcKmOMl+RhGB1oU9X4Yncz7XXrUnOTSFDOV7xbGpkXnbvAO+3Qrk0x3TNsWWdOwizBWgx0YH+67QzSbS6ZO6uYblTC41DtAP/d9keaiDDIzF3lLU+tUKSXhcOu8jkfzXwr6slu9w3tE+sU2ptnbqwFhe+dtxmomsaTdG316q1FBy+uBm4JRYi9XmFtByuyHiZ0S3RpFaIYROqd80YL4g/TIpbmkiInl/RGvb3HYXHfLH7g+rVyZcn64VLUefaOHnLLYmiAYJMTtd1CAjTBF43++OaJkDLkC2QLi62Orf2P+pJfbuoQ2fnwjQxykhLV8csJ4x9h1u+LY+T9Mh12/LvnzCdhXLPLUw3RwNyP9186boWprb7SnuUuvi46wS4C34rlJOU/OBUIUVJDB1Qf3cFQrnOe+F2NFPN4mblviHB4cY4NfqPA0Jz2Em42bW1+GurDy6iz0XSo9TFxz34J9L9T8pgRB+OSe6qbhBpJAfVjg8TCvfdpyP6LUyDOe07z/FokmMyhvW5oUbs5M3cVbd6V9biUixbEq2n5HbQQ5lyTR2eByFKBi3IYVGadyL0RdBielYGb0kXfklXfzPEl29Mru2fd/tfS0fW4qH0SbfpvXG9otrxN+ckrd7qR2y6FWz9SM6vtOMk4mvDouS9+hTfSZQk/KvdH4o5pidH5ika5IfCwghs4a4rEuHVjyXcRpKf4XrlDhvKrmqZgOfPqDoPpIZBtKmbzEm1zCWqYQX5Ry948Q3d6W24b44pP/o+e1my53d2uVTuqTq3J97vJmfbD2FKv2Rl5c5fsF9FnXd9kthXY5XSIp5Zc+otzDvgamvx1kl9NRbrqs9ZPS+Yq6PqrXwCkh+C4mdQc35199GxdCNMmPbkyRFh0fhwv1zAoxEJV5HbEGFEIzC1yZ8EwvTsiAGQxoJe/ZJHRP4aUmRc0fhpfC5SmMlvPWAQ/C4Qph4gRuUa3qR5K0NTZGtJJF0hMk8PhAkAoB0YLgAA0A4IEwBAOyBMAADtgDABALQDwgQA0A4IEwBAOyBMAADtgDABALQDwgQA0A4IUxvEc2e18/T8JiUzZ3Zopw3AI+mHMGVcIMpK577rv0J+5kzfVoufAfWDUPbZnRfr5hkywe/TD2Eabfhm9aVRongyPb1507JdDmlllDvH5pBT8T7I8A+cUNddzJ5GpnP2+R1L6HQwnTDQAYRyzGDEX3z+Uh/G+LX90zybxXuPgTCl8K/y0g5o8VlsNt2SuxHzV1u5MESEjWuOG8UUHtndiKlJjusIdZRzK5+WpdveI+SM+FhrUU+u0/F4fGxRzzKydRXl7HIUQufH5eSey+K9z0CYMozeOVRwv1iKslybuxGCZkh7m2142n6//aB/X1NaiPn0Mwzme/m+I2KRn0+yjBXRZJlxgG0RcraBRcTgY3k0oeU2PB4rXE7IGwt33nNRkXWVF8KW9TubHqkQOt8t9JW5pydyxAVHIExZpOVRR5bhuy9pFyQskwfZ+5L/GG22iQBVELgHevX3tJmPctPh3iXklCKyp/1mTqNMRcWxtlzJSpeV0Qefg0vTiopE6xW5Lay4r6dri3egAxCmezF6Z1ly6Ytv3JI2B833NdPD2svq91TI6X3f/26sN3Xkc1jaFCw+S87vZG/UeVspWJzCRGNBhYYneBIgTHdDhIAhDX+mNM3mWyyLZutdyc18whwa6lU50tH2ar+4c3brWT6/JItF1spVa1RQ0Wq6a2sp2yuHXrinBcKUJfzhX+Aue3W4VbHhMCm9kbjs93v6+PdFUy3GTimbZ0+ks8JcPiuOt7SdXEqolbWaEivuu7SWSkEv3DMCYcogbZ/t97v36gxGG77pDzSelnvDX/L3F060pS6pbdl90iIQebANzUeDgpDw3//UyzoKrSZpxf2Q3BIjxzehF+4ZgTAdEXkRIqejO0q0RK7uJndX1T1v0ZpWrkmTt9ubCVKIzWHFjc2tqUuhnCTbanp0awk8KxAmcTvt1mRZK+KmQ6emiMFiShYrTFTQp2g3o6kQwW25nZLpTIhW57koWc+pJ3vsuqjn4G1CZrBgAc2qYJTknF4M8ppmcNJWk/XA1hJ4buI+oGylq4rwcC93RU682su2yRfeXm2RImypTcePfadow2zWHC/dTrwZnllo36OewvbZzlmEZ46TuW71NuOMWvfietfQV4v3HgNfOc0QIaA3Cf/e83jSJZcojDcI48DNIJQDHZDko0znA6IEOgHCBG5H9e5tMesC6AgIkyakD8aKZ+iChXEc6Njpc3FdUZwfaSx671wyxGurfAgEAG1AjgkAoB1oMQEAtAPCBADQDggTAEA7IEwAAO2AMAEAtAPCBADQDggTAEA7IEwAAO3QT5iyo4oxihiAXiKFSTzRfny8oLY8wCpHua6GdTYiAICnRgqTcOyIpQ+YSU7GAy1XnsoMHwCgM61DuXr/DgAAuJ3mwiSNEfOTgJ2sohMDxkhOyXoK/azZOjc17BlRJK2pT6Gi2ubKqbIBAM9BrTAV/fWLSKto5e3lTV/I8IYnO+wwpMlhQYZVIU47FjFjSj/v20zIGNJy+ENTw6LPH7UeAKB3tA7lygmIXn2Ks3bY/GK+98kOFvR5Jm47mo0PNAn3tBll22ADGs03tA8ndHDhsQpAXykIU0AL4xRWiUnLmmHSpNQaY0TDks416dRqL6udPqQNtnoNAOgdBWHK98rdq8f+2wsa2WADAPpJR6EcAAB0R60wifFNm0yEdikZ3pS3idnIBhsA0E9+pcU0mC/JdldyiEEp0gZbvQYA9I5fCuVGtPFfyTMsboFl1UnZUxsevdrIMQHQW2JG2FKLl01K1pH5bDvTUe8wRVvu7HspoX9ug207cRgKV+jT8rvYTgMAtAX2TQAA7UCvHABAOyBMAADtgDABALQDwgQA0A4IEwBAOyBMAADNIPo/c1/0BtTiglcAAAAASUVORK5CYII=;" vertex="1" parent="1">
          <mxGeometry x="-150" y="50" width="294" height="131" as="geometry" />
        </mxCell>
        <mxCell id="q7QgNxrnTfwrDp3vI8ud-9" style="edgeStyle=orthogonalEdgeStyle;rounded=0;orthogonalLoop=1;jettySize=auto;html=1;exitX=0.5;exitY=1;exitDx=0;exitDy=0;entryX=0.5;entryY=0;entryDx=0;entryDy=0;" edge="1" parent="1" source="q7QgNxrnTfwrDp3vI8ud-3" target="q7QgNxrnTfwrDp3vI8ud-4">
          <mxGeometry relative="1" as="geometry" />
        </mxCell>
        <mxCell id="q7QgNxrnTfwrDp3vI8ud-3" value="&lt;font style=&quot;font-size: 20px;&quot;&gt;Begin&lt;/font&gt;" style="ellipse;whiteSpace=wrap;html=1;" vertex="1" parent="1">
          <mxGeometry x="275" y="60" width="120" height="80" as="geometry" />
        </mxCell>
        <mxCell id="q7QgNxrnTfwrDp3vI8ud-10" style="edgeStyle=orthogonalEdgeStyle;rounded=0;orthogonalLoop=1;jettySize=auto;html=1;exitX=0.5;exitY=1;exitDx=0;exitDy=0;entryX=0.5;entryY=0;entryDx=0;entryDy=0;" edge="1" parent="1" source="q7QgNxrnTfwrDp3vI8ud-4" target="q7QgNxrnTfwrDp3vI8ud-6">
          <mxGeometry relative="1" as="geometry" />
        </mxCell>
        <mxCell id="q7QgNxrnTfwrDp3vI8ud-4" value="&lt;font style=&quot;font-size: 20px;&quot;&gt;Input C&lt;/font&gt;" style="shape=parallelogram;perimeter=parallelogramPerimeter;whiteSpace=wrap;html=1;fixedSize=1;" vertex="1" parent="1">
          <mxGeometry x="245" y="181" width="180" height="60" as="geometry" />
        </mxCell>
        <mxCell id="q7QgNxrnTfwrDp3vI8ud-11" style="edgeStyle=orthogonalEdgeStyle;rounded=0;orthogonalLoop=1;jettySize=auto;html=1;exitX=0.5;exitY=1;exitDx=0;exitDy=0;entryX=0.5;entryY=0;entryDx=0;entryDy=0;" edge="1" parent="1" source="q7QgNxrnTfwrDp3vI8ud-6" target="q7QgNxrnTfwrDp3vI8ud-7">
          <mxGeometry relative="1" as="geometry" />
        </mxCell>
        <mxCell id="q7QgNxrnTfwrDp3vI8ud-6" value="&lt;font style=&quot;font-size: 20px;&quot;&gt;F = (9*C)/5 + 32&lt;/font&gt;" style="rounded=1;whiteSpace=wrap;html=1;" vertex="1" parent="1">
          <mxGeometry x="240" y="280" width="190" height="60" as="geometry" />
        </mxCell>
        <mxCell id="q7QgNxrnTfwrDp3vI8ud-12" style="edgeStyle=orthogonalEdgeStyle;rounded=0;orthogonalLoop=1;jettySize=auto;html=1;exitX=0.5;exitY=1;exitDx=0;exitDy=0;entryX=0.5;entryY=0;entryDx=0;entryDy=0;" edge="1" parent="1" source="q7QgNxrnTfwrDp3vI8ud-7" target="q7QgNxrnTfwrDp3vI8ud-8">
          <mxGeometry relative="1" as="geometry" />
        </mxCell>
        <mxCell id="q7QgNxrnTfwrDp3vI8ud-7" value="&lt;font style=&quot;font-size: 20px;&quot;&gt;Output F&lt;/font&gt;" style="shape=parallelogram;perimeter=parallelogramPerimeter;whiteSpace=wrap;html=1;fixedSize=1;" vertex="1" parent="1">
          <mxGeometry x="245" y="380" width="180" height="60" as="geometry" />
        </mxCell>
        <mxCell id="q7QgNxrnTfwrDp3vI8ud-8" value="&lt;font style=&quot;font-size: 20px;&quot;&gt;End&lt;/font&gt;" style="ellipse;whiteSpace=wrap;html=1;" vertex="1" parent="1">
          <mxGeometry x="275" y="480" width="120" height="80" as="geometry" />
        </mxCell>
      </root>
    </mxGraphModel>
  </diagram>
</mxfile>
